<svg width="160" height="34" viewBox="0 0 160 34" fill="none" xmlns="http://www.w3.org/2000/svg">
<mask id="mask0_533_6720" style="mask-type:luminance" maskUnits="userSpaceOnUse" x="0" y="0" width="160" height="34">
<path d="M160 0H0V33.4328H160V0Z" fill="white"/>
</mask>
<g mask="url(#mask0_533_6720)">
<path d="M52.8177 17.8601H68.4723V14.4406H52.8177V17.8601ZM66.0881 5.97015V27.9305H69.79V5.97015H66.0881ZM51.3433 5.97015V27.9305H55.0452V5.97015H51.3433Z" fill="#153C59"/>
<path d="M73.3076 20.715C73.3076 22.179 73.6423 23.4862 74.3115 24.6365C75.0017 25.7659 75.9324 26.6547 77.1036 27.3031C78.2749 27.9305 79.6029 28.2442 81.0879 28.2442C82.5728 28.2442 83.8904 27.9305 85.0407 27.3031C86.212 26.6547 87.1427 25.7659 87.8328 24.6365C88.523 23.4862 88.8681 22.179 88.8681 20.715C88.8681 19.23 88.523 17.9229 87.8328 16.7935C87.1427 15.6641 86.212 14.7857 85.0407 14.1582C83.8904 13.5099 82.5728 13.1857 81.0879 13.1857C79.6029 13.1857 78.2749 13.5099 77.1036 14.1582C75.9324 14.7857 75.0017 15.6641 74.3115 16.7935C73.6423 17.9229 73.3076 19.23 73.3076 20.715ZM76.7899 20.715C76.7899 19.8156 76.9781 19.0209 77.3546 18.3307C77.7311 17.6405 78.2435 17.1072 78.8918 16.7307C79.5402 16.3543 80.2722 16.166 81.0879 16.166C81.8826 16.166 82.6042 16.3543 83.2525 16.7307C83.9218 17.1072 84.4447 17.6405 84.8211 18.3307C85.1976 19.0209 85.3858 19.8156 85.3858 20.715C85.3858 21.6143 85.1976 22.4091 84.8211 23.0992C84.4447 23.7685 83.9218 24.3018 83.2525 24.6992C82.6042 25.0757 81.8826 25.2639 81.0879 25.2639C80.2722 25.2639 79.5402 25.0757 78.8918 24.6992C78.2435 24.3018 77.7311 23.7685 77.3546 23.0992C76.9781 22.4091 76.7899 21.6143 76.7899 20.715Z" fill="#153C59"/>
<path d="M112.726 18.7699C112.726 17.5778 112.559 16.5634 112.224 15.7268C111.89 14.8902 111.377 14.2628 110.687 13.8445C110.018 13.4053 109.171 13.1857 108.146 13.1857C107.163 13.1857 106.284 13.4053 105.511 13.8445C104.758 14.2837 104.13 14.9216 103.628 15.7582C103.315 14.9216 102.802 14.2837 102.091 13.8445C101.401 13.4053 100.522 13.1857 99.4554 13.1857C98.5352 13.1857 97.73 13.3948 97.0398 13.8131C96.3705 14.2105 95.8267 14.8066 95.4084 15.6013V13.4994H92.083V27.9305H95.4084V19.1464C95.4084 18.4562 95.5235 17.8706 95.7535 17.3895C95.9836 16.9085 96.3078 16.5425 96.726 16.2915C97.1653 16.0405 97.6777 15.9151 98.2633 15.9151C99.0999 15.9151 99.7064 16.1869 100.083 16.7307C100.481 17.2536 100.679 18.0588 100.679 19.1464V27.9305H104.067V19.1464C104.067 18.4562 104.183 17.8706 104.413 17.3895C104.664 16.9085 104.998 16.5425 105.416 16.2915C105.856 16.0405 106.358 15.9151 106.922 15.9151C107.759 15.9151 108.365 16.1869 108.742 16.7307C109.139 17.2536 109.338 18.0588 109.338 19.1464V27.9305H112.726V18.7699Z" fill="#153C59"/>
<path d="M123.327 28.2442C125 28.2442 126.432 27.9201 127.625 27.2717C128.817 26.6234 129.789 25.6508 130.542 24.3541L127.625 23.162C127.165 23.9358 126.589 24.511 125.899 24.8874C125.209 25.2639 124.404 25.4521 123.484 25.4521C122.605 25.4521 121.852 25.2639 121.225 24.8874C120.618 24.511 120.158 23.9672 119.844 23.2561C119.531 22.5241 119.374 21.6352 119.374 20.5895C119.395 19.5437 119.562 18.6653 119.876 17.9542C120.189 17.2431 120.65 16.6994 121.256 16.3229C121.863 15.9464 122.595 15.7582 123.452 15.7582C124.163 15.7582 124.78 15.9151 125.303 16.2288C125.847 16.5425 126.265 16.9817 126.558 17.5464C126.872 18.1111 127.029 18.7804 127.029 19.5542C127.029 19.7006 126.987 19.8888 126.903 20.1189C126.84 20.328 126.778 20.4954 126.715 20.6209L127.75 19.1777H117.962V21.4993H130.636C130.657 21.4156 130.668 21.2797 130.668 21.0914C130.689 20.9032 130.699 20.7254 130.699 20.5581C130.699 19.0104 130.406 17.6928 129.821 16.6052C129.256 15.4968 128.44 14.6497 127.374 14.0641C126.307 13.4785 125.01 13.1857 123.484 13.1857C121.957 13.1857 120.629 13.4994 119.499 14.1269C118.37 14.7334 117.491 15.6013 116.864 16.7307C116.258 17.8601 115.954 19.1882 115.954 20.715C115.954 22.2208 116.258 23.5384 116.864 24.6678C117.471 25.7972 118.328 26.6756 119.437 27.3031C120.566 27.9305 121.863 28.2442 123.327 28.2442Z" fill="#153C59"/>
<path d="M137.29 13.4994H133.933V27.9305H137.29V13.4994ZM141.588 17.1072L143.219 14.2523C142.905 13.855 142.519 13.5831 142.058 13.4367C141.598 13.2694 141.107 13.1857 140.584 13.1857C139.852 13.1857 139.141 13.4471 138.451 13.97C137.781 14.4929 137.227 15.204 136.788 16.1033C136.37 16.9817 136.16 17.9961 136.16 19.1464L137.29 19.8052C137.29 19.115 137.363 18.5189 137.509 18.017C137.677 17.4941 137.938 17.0863 138.294 16.7935C138.649 16.5007 139.109 16.3543 139.674 16.3543C140.092 16.3543 140.438 16.417 140.709 16.5425C140.981 16.668 141.274 16.8562 141.588 17.1072Z" fill="#153C59"/>
<path d="M143.987 20.715C143.987 22.179 144.321 23.4862 144.991 24.6365C145.681 25.7659 146.612 26.6547 147.783 27.3031C148.954 27.9305 150.282 28.2442 151.767 28.2442C153.252 28.2442 154.57 27.9305 155.72 27.3031C156.891 26.6547 157.822 25.7659 158.512 24.6365C159.202 23.4862 159.547 22.179 159.547 20.715C159.547 19.23 159.202 17.9229 158.512 16.7935C157.822 15.6641 156.891 14.7857 155.72 14.1582C154.57 13.5099 153.252 13.1857 151.767 13.1857C150.282 13.1857 148.954 13.5099 147.783 14.1582C146.612 14.7857 145.681 15.6641 144.991 16.7935C144.321 17.9229 143.987 19.23 143.987 20.715ZM147.469 20.715C147.469 19.8156 147.657 19.0209 148.034 18.3307C148.41 17.6405 148.923 17.1072 149.571 16.7307C150.219 16.3543 150.951 16.166 151.767 16.166C152.562 16.166 153.283 16.3543 153.932 16.7307C154.601 17.1072 155.124 17.6405 155.5 18.3307C155.877 19.0209 156.065 19.8156 156.065 20.715C156.065 21.6143 155.877 22.4091 155.5 23.0992C155.124 23.7685 154.601 24.3018 153.932 24.6992C153.283 25.0757 152.562 25.2639 151.767 25.2639C150.951 25.2639 150.219 25.0757 149.571 24.6992C148.923 24.3018 148.41 23.7685 148.034 23.0992C147.657 22.4091 147.469 21.6143 147.469 20.715Z" fill="#153C59"/>
<path d="M9.13417 20.2985V28.5329C7.91322 28.5193 8.92076 28.5329 7.16406 28.5329" stroke="#153C59" stroke-width="2.25539" stroke-linecap="square" stroke-linejoin="round"/>
<path d="M4.01904 27.3742C4.31788 27.3761 4.60481 27.4954 4.82162 27.7077C5.03842 27.92 5.16885 28.2095 5.18647 28.5175C5.20409 28.8254 5.10756 29.1287 4.91648 29.3659C4.7254 29.6031 4.45408 29.7564 4.15754 29.7946C3.861 29.8329 3.56146 29.7533 3.3197 29.572C3.07794 29.3906 2.91205 29.1212 2.8557 28.8182C2.79935 28.5153 2.85676 28.2015 3.01626 27.9406C3.17576 27.6798 3.42544 27.4913 3.71461 27.4135C3.81398 27.3866 3.91634 27.3734 4.01904 27.3742ZM4.01904 25.6907C3.52397 25.687 3.03679 25.8188 2.60708 26.0726C2.17737 26.3264 1.82048 26.6932 1.57271 27.1357C1.32455 27.5782 1.19386 28.0805 1.19385 28.5919C1.19384 29.1032 1.3245 29.6055 1.57264 30.0481C1.82078 30.4906 2.17762 30.8578 2.60714 31.1125C3.03667 31.3672 3.52369 31.5005 4.01904 31.4988C4.76517 31.4988 5.48073 31.1928 6.00832 30.6482C6.53591 30.1036 6.83233 29.3649 6.83233 28.5947C6.83233 27.8245 6.53591 27.0859 6.00832 26.5413C5.48073 25.9967 4.76517 25.6907 4.01904 25.6907Z" fill="#153C59"/>
<mask id="mask1_533_6720" style="mask-type:luminance" maskUnits="userSpaceOnUse" x="1" y="25" width="6" height="7">
<path d="M4.01904 27.3742C4.31788 27.3761 4.60481 27.4954 4.82162 27.7077C5.03842 27.92 5.16885 28.2095 5.18647 28.5175C5.20409 28.8254 5.10756 29.1287 4.91648 29.3659C4.7254 29.6031 4.45408 29.7564 4.15754 29.7946C3.861 29.8329 3.56146 29.7533 3.3197 29.572C3.07794 29.3906 2.91205 29.1212 2.8557 28.8182C2.79935 28.5153 2.85676 28.2015 3.01626 27.9406C3.17576 27.6798 3.42544 27.4913 3.71461 27.4135C3.81398 27.3866 3.91634 27.3734 4.01904 27.3742ZM4.01904 25.6907C3.52397 25.687 3.03679 25.8188 2.60708 26.0726C2.17737 26.3264 1.82048 26.6932 1.57271 27.1357C1.32455 27.5782 1.19386 28.0805 1.19385 28.5919C1.19384 29.1032 1.3245 29.6055 1.57264 30.0481C1.82078 30.4906 2.17762 30.8578 2.60714 31.1125C3.03667 31.3672 3.52369 31.5005 4.01904 31.4988C4.76517 31.4988 5.48073 31.1928 6.00832 30.6482C6.53591 30.1036 6.83233 29.3649 6.83233 28.5947C6.83233 27.8245 6.53591 27.0859 6.00832 26.5413C5.48073 25.9967 4.76517 25.6907 4.01904 25.6907Z" fill="#153C59"/>
</mask>
<g mask="url(#mask1_533_6720)">
<path d="M4.01928 27.3742L4.00579 29.1722H4.00749L4.01928 27.3742ZM3.71485 27.4135L4.18219 29.1498L4.18382 29.1493L3.71485 27.4135ZM4.01928 25.6907L4.00596 27.4888H4.01928V25.6907ZM1.57295 27.1357L3.14129 28.0152L3.1418 28.0142L1.57295 27.1357ZM4.01928 31.4988V29.7007H4.01323L4.01928 31.4988ZM4.00749 29.1722C3.83212 29.1711 3.67441 29.1007 3.56378 28.9924L6.07993 26.423C5.53569 25.89 4.80413 25.5812 4.03108 25.5761L4.00749 29.1722ZM3.56378 28.9924C3.45477 28.8856 3.39904 28.7511 3.39155 28.6202L6.98187 28.4147C6.93913 27.6679 6.62255 26.9544 6.07993 26.423L3.56378 28.9924ZM3.39155 28.6202C3.38406 28.4893 3.42404 28.3526 3.51649 28.2379L6.31695 30.494C6.79156 29.9048 7.0246 29.1615 6.98187 28.4147L3.39155 28.6202ZM3.51649 28.2379C3.61028 28.1214 3.75475 28.0336 3.92767 28.0113L4.38788 31.5779C5.15388 31.4791 5.84099 31.0848 6.31695 30.494L3.51649 28.2379ZM3.92767 28.0113C4.10122 27.9889 4.27029 28.0371 4.39884 28.1335L2.24103 31.0104C2.8531 31.4695 3.62127 31.6769 4.38788 31.5779L3.92767 28.0113ZM4.39884 28.1335C4.52544 28.2285 4.59943 28.3588 4.62371 28.4894L1.08817 29.147C1.22516 29.8835 1.63092 30.5528 2.24103 31.0104L4.39884 28.1335ZM4.62371 28.4894C4.64789 28.6193 4.62471 28.7573 4.55057 28.8786L1.48244 27.0027C1.08929 27.6457 0.951284 28.4112 1.08817 29.147L4.62371 28.4894ZM4.55057 28.8786C4.47542 29.0015 4.34794 29.1052 4.18219 29.1498L3.24752 25.6772C2.50343 25.8774 1.87658 26.358 1.48244 27.0027L4.55057 28.8786ZM4.18382 29.1493C4.12631 29.1649 4.06637 29.1727 4.00579 29.1722L4.03278 25.5761C3.76678 25.5741 3.50213 25.6084 3.24588 25.6776L4.18382 29.1493ZM4.03261 23.8926C3.20857 23.8865 2.40104 24.1061 1.69284 24.5244L3.5218 27.6208C3.67301 27.5315 3.83985 27.4876 4.00596 27.4888L4.03261 23.8926ZM1.69284 24.5244C0.985095 24.9425 0.404394 25.5423 0.00409383 26.2572L3.1418 28.0142C3.23704 27.8442 3.37013 27.7104 3.5218 27.6208L1.69284 24.5244ZM0.00460476 26.2562C-0.395418 26.9696 -0.603984 27.775 -0.604004 28.5918L2.99219 28.5919C2.99219 28.386 3.04499 28.1869 3.14129 28.0152L0.00460476 26.2562ZM-0.604004 28.5918C-0.604024 29.4087 -0.39548 30.2141 0.00449437 30.9274L3.14127 29.1687C3.04496 28.9969 2.99218 28.7978 2.99219 28.5919L-0.604004 28.5918ZM0.00449437 30.9274C0.404679 31.6412 0.98422 32.2404 1.69025 32.6591L3.52452 29.5659C3.37149 29.4751 3.23736 29.3401 3.14127 29.1687L0.00449437 30.9274ZM1.69025 32.6591C2.3967 33.078 3.20235 33.2996 4.02534 33.2969L4.01323 29.7007C3.84551 29.7013 3.67713 29.6564 3.52452 29.5659L1.69025 32.6591ZM4.01928 33.2969C5.26109 33.2969 6.43997 32.7871 7.30002 31.8993L4.71709 29.3971C4.52196 29.5985 4.26974 29.7007 4.01928 29.7007V33.2969ZM7.30002 31.8993C8.15822 31.0134 8.63066 29.8237 8.63066 28.5947H5.03447C5.03447 28.9061 4.91409 29.1937 4.71709 29.3971L7.30002 31.8993ZM8.63066 28.5947C8.63066 27.3657 8.1582 26.176 7.30002 25.2902L4.71709 27.7924C4.9141 27.9957 5.03447 28.2833 5.03447 28.5947H8.63066ZM7.30002 25.2902C6.43997 24.4024 5.26109 23.8926 4.01928 23.8926V27.4888C4.26974 27.4888 4.52196 27.591 4.71709 27.7924L7.30002 25.2902Z" fill="#153C59"/>
</g>
<path d="M30.2686 21.4926V28.5329C31.4896 28.5193 30.482 28.5329 32.2387 28.5329" stroke="#153C59" stroke-width="2.25539" stroke-linecap="square" stroke-linejoin="round"/>
<path d="M35.3836 27.3742C35.0848 27.3761 34.7978 27.4954 34.581 27.7077C34.3642 27.92 34.2338 28.2095 34.2162 28.5175C34.1985 28.8254 34.2951 29.1287 34.4862 29.3659C34.6772 29.6031 34.9486 29.7564 35.2451 29.7946C35.5416 29.8329 35.8412 29.7533 36.0829 29.572C36.3247 29.3906 36.4906 29.1212 36.5469 28.8182C36.6033 28.5153 36.5459 28.2015 36.3864 27.9406C36.2269 27.6798 35.9772 27.4913 35.688 27.4135C35.5887 27.3866 35.4863 27.3734 35.3836 27.3742ZM35.3836 25.6907C35.8787 25.687 36.3658 25.8188 36.7956 26.0726C37.2253 26.3264 37.5822 26.6932 37.8299 27.1357C38.0781 27.5782 38.2088 28.0805 38.2088 28.5919C38.2088 29.1032 38.0781 29.6055 37.83 30.0481C37.5819 30.4906 37.225 30.8578 36.7955 31.1125C36.366 31.3672 35.8789 31.5005 35.3836 31.4988C34.6375 31.4988 33.9219 31.1928 33.3943 30.6482C32.8667 30.1036 32.5703 29.3649 32.5703 28.5947C32.5703 27.8245 32.8667 27.0859 33.3943 26.5413C33.9219 25.9967 34.6375 25.6907 35.3836 25.6907Z" fill="#153C59"/>
<mask id="mask2_533_6720" style="mask-type:luminance" maskUnits="userSpaceOnUse" x="32" y="25" width="7" height="7">
<path d="M35.3836 27.3742C35.0848 27.3761 34.7978 27.4954 34.581 27.7077C34.3642 27.92 34.2338 28.2095 34.2162 28.5175C34.1985 28.8254 34.2951 29.1287 34.4862 29.3659C34.6772 29.6031 34.9486 29.7564 35.2451 29.7946C35.5416 29.8329 35.8412 29.7533 36.0829 29.572C36.3247 29.3906 36.4906 29.1212 36.5469 28.8182C36.6033 28.5153 36.5459 28.2015 36.3864 27.9406C36.2269 27.6798 35.9772 27.4913 35.688 27.4135C35.5887 27.3866 35.4863 27.3734 35.3836 27.3742ZM35.3836 25.6907C35.8787 25.687 36.3658 25.8188 36.7956 26.0726C37.2253 26.3264 37.5822 26.6932 37.8299 27.1357C38.0781 27.5782 38.2088 28.0805 38.2088 28.5919C38.2088 29.1032 38.0781 29.6055 37.83 30.0481C37.5819 30.4906 37.225 30.8578 36.7955 31.1125C36.366 31.3672 35.8789 31.5005 35.3836 31.4988C34.6375 31.4988 33.9219 31.1928 33.3943 30.6482C32.8667 30.1036 32.5703 29.3649 32.5703 28.5947C32.5703 27.8245 32.8667 27.0859 33.3943 26.5413C33.9219 25.9967 34.6375 25.6907 35.3836 25.6907Z" fill="#153C59"/>
</mask>
<g mask="url(#mask2_533_6720)">
<path d="M35.3834 27.3742L35.3969 29.1722H35.3952L35.3834 27.3742ZM35.6878 27.4135L35.2205 29.1498L35.2189 29.1493L35.6878 27.4135ZM35.3834 25.6907L35.3967 27.4888H35.3834V25.6907ZM37.8297 27.1357L36.2614 28.0152L36.2609 28.0142L37.8297 27.1357ZM35.3834 31.4988V29.7007H35.3894L35.3834 31.4988ZM35.3952 29.1722C35.5706 29.1711 35.7283 29.1007 35.8389 28.9924L33.3227 26.423C33.867 25.89 34.5985 25.5812 35.3716 25.5761L35.3952 29.1722ZM35.8389 28.9924C35.9479 28.8856 36.0036 28.7511 36.0111 28.6202L32.4208 28.4147C32.4635 27.6679 32.7801 26.9544 33.3227 26.423L35.8389 28.9924ZM36.0111 28.6202C36.0186 28.4893 35.9786 28.3526 35.8862 28.2379L33.0857 30.494C32.6111 29.9048 32.3781 29.1615 32.4208 28.4147L36.0111 28.6202ZM35.8862 28.2379C35.7924 28.1214 35.6479 28.0336 35.475 28.0113L35.0148 31.5779C34.2488 31.4791 33.5617 31.0848 33.0857 30.494L35.8862 28.2379ZM35.475 28.0113C35.3015 27.9889 35.1324 28.0371 35.0038 28.1335L37.1616 31.0104C36.5496 31.4695 35.7814 31.6769 35.0148 31.5779L35.475 28.0113ZM35.0038 28.1335C34.8772 28.2285 34.8032 28.3588 34.779 28.4894L38.3145 29.147C38.1775 29.8835 37.7718 30.5528 37.1616 31.0104L35.0038 28.1335ZM34.779 28.4894C34.7548 28.6193 34.778 28.7573 34.8521 28.8786L37.9202 27.0027C38.3134 27.6457 38.4514 28.4112 38.3145 29.147L34.779 28.4894ZM34.8521 28.8786C34.9273 29.0015 35.0547 29.1052 35.2205 29.1498L36.1552 25.6772C36.8992 25.8774 37.5261 26.358 37.9202 27.0027L34.8521 28.8786ZM35.2189 29.1493C35.2764 29.1649 35.3363 29.1727 35.3969 29.1722L35.3699 25.5761C35.6359 25.5741 35.9005 25.6084 36.1568 25.6776L35.2189 29.1493ZM35.3701 23.8926C36.1941 23.8865 37.0016 24.1061 37.7098 24.5244L35.8809 27.6208C35.7297 27.5315 35.5628 27.4876 35.3967 27.4888L35.3701 23.8926ZM37.7098 24.5244C38.4176 24.9425 38.9983 25.5423 39.3986 26.2572L36.2609 28.0142C36.1656 27.8442 36.0325 27.7104 35.8809 27.6208L37.7098 24.5244ZM39.3981 26.2562C39.7981 26.9696 40.0067 27.775 40.0067 28.5918L36.4105 28.5919C36.4105 28.386 36.3577 28.1869 36.2614 28.0152L39.3981 26.2562ZM40.0067 28.5918C40.0067 29.4087 39.7982 30.2141 39.3982 30.9274L36.2614 29.1687C36.3577 28.9969 36.4105 28.7978 36.4105 28.5919L40.0067 28.5918ZM39.3982 30.9274C38.998 31.6412 38.4185 32.2404 37.7124 32.6591L35.8782 29.5659C36.0312 29.4751 36.1653 29.3401 36.2614 29.1687L39.3982 30.9274ZM37.7124 32.6591C37.006 33.078 36.2003 33.2996 35.3773 33.2969L35.3894 29.7007C35.5572 29.7013 35.7255 29.6564 35.8782 29.5659L37.7124 32.6591ZM35.3834 33.2969C34.1416 33.2969 32.9627 32.7871 32.1027 31.8993L34.6856 29.3971C34.8807 29.5985 35.1329 29.7007 35.3834 29.7007V33.2969ZM32.1027 31.8993C31.2445 31.0134 30.772 29.8237 30.772 28.5947H34.3682C34.3682 28.9061 34.4886 29.1937 34.6856 29.3971L32.1027 31.8993ZM30.772 28.5947C30.772 27.3657 31.2445 26.176 32.1027 25.2902L34.6856 27.7924C34.4886 27.9957 34.3682 28.2833 34.3682 28.5947H30.772ZM32.1027 25.2902C32.9627 24.4024 34.1416 23.8926 35.3834 23.8926V27.4888C35.1329 27.4888 34.8807 27.591 34.6856 27.7924L32.1027 25.2902Z" fill="#153C59"/>
</g>
<path d="M15.2295 29.1463C15.5283 29.1483 15.8152 29.2675 16.032 29.4798C16.2488 29.6922 16.3793 29.9817 16.3969 30.2896C16.4145 30.5976 16.318 30.9009 16.1269 31.1381C15.9358 31.3753 15.6645 31.5285 15.368 31.5668C15.0714 31.6051 14.7719 31.5255 14.5301 31.3441C14.2883 31.1628 14.1225 30.8933 14.0661 30.5904C14.0098 30.2874 14.0672 29.9737 14.2267 29.7128C14.3862 29.4519 14.6358 29.2635 14.925 29.1856C15.0244 29.1588 15.1267 29.1456 15.2295 29.1463ZM15.2295 27.4628C14.7344 27.4592 14.2472 27.591 13.8175 27.8448C13.3878 28.0986 13.0309 28.4654 12.7831 28.9079C12.535 29.3504 12.4043 29.8527 12.4043 30.364C12.4043 30.8754 12.5349 31.3777 12.7831 31.8202C13.0312 32.2628 13.388 32.6299 13.8176 32.8846C14.2471 33.1393 14.7341 33.2726 15.2295 33.2709C15.9756 33.2709 16.6911 32.965 17.2187 32.4204C17.7463 31.8757 18.0427 31.1371 18.0427 30.3669C18.0427 29.5967 17.7463 28.858 17.2187 28.3134C16.6911 27.7688 15.9756 27.4628 15.2295 27.4628Z" fill="#153C59"/>
<mask id="mask3_533_6720" style="mask-type:luminance" maskUnits="userSpaceOnUse" x="12" y="27" width="7" height="7">
<path d="M15.2295 29.1463C15.5283 29.1483 15.8152 29.2675 16.032 29.4798C16.2488 29.6922 16.3793 29.9817 16.3969 30.2896C16.4145 30.5976 16.318 30.9009 16.1269 31.1381C15.9358 31.3753 15.6645 31.5285 15.368 31.5668C15.0714 31.6051 14.7719 31.5255 14.5301 31.3441C14.2883 31.1628 14.1225 30.8933 14.0661 30.5904C14.0098 30.2874 14.0672 29.9737 14.2267 29.7128C14.3862 29.4519 14.6358 29.2635 14.925 29.1856C15.0244 29.1588 15.1267 29.1456 15.2295 29.1463ZM15.2295 27.4628C14.7344 27.4592 14.2472 27.591 13.8175 27.8448C13.3878 28.0986 13.0309 28.4654 12.7831 28.9079C12.535 29.3504 12.4043 29.8527 12.4043 30.364C12.4043 30.8754 12.5349 31.3777 12.7831 31.8202C13.0312 32.2628 13.388 32.6299 13.8176 32.8846C14.2471 33.1393 14.7341 33.2726 15.2295 33.2709C15.9756 33.2709 16.6911 32.965 17.2187 32.4204C17.7463 31.8757 18.0427 31.1371 18.0427 30.3669C18.0427 29.5967 17.7463 28.858 17.2187 28.3134C16.6911 27.7688 15.9756 27.4628 15.2295 27.4628Z" fill="#153C59"/>
</mask>
<g mask="url(#mask3_533_6720)">
<path d="M15.2293 29.1463L15.2158 30.9444H15.2175L15.2293 29.1463ZM14.9248 29.1856L15.3922 30.9219L15.3938 30.9215L14.9248 29.1856ZM15.2293 27.4628L15.2159 29.2609H15.2293V27.4628ZM12.7829 28.9079L14.3513 29.7873L14.3518 29.7864L12.7829 28.9079ZM15.2293 33.2709V31.4728L15.2232 31.4729L15.2293 33.2709ZM15.2175 30.9444C15.0421 30.9433 14.8844 30.8729 14.7738 30.7645L17.2899 28.1952C16.7457 27.6622 16.0141 27.3534 15.241 27.3483L15.2175 30.9444ZM14.7738 30.7645C14.6647 30.6578 14.609 30.5233 14.6015 30.3923L18.1918 30.1869C18.1491 29.44 17.8325 28.7265 17.2899 28.1952L14.7738 30.7645ZM14.6015 30.3923C14.594 30.2615 14.634 30.1248 14.7265 30.01L17.5269 32.2661C18.0015 31.677 18.2346 30.9336 18.1918 30.1869L14.6015 30.3923ZM14.7265 30.01C14.8203 29.8936 14.9647 29.8058 15.1376 29.7835L15.5979 33.3501C16.3638 33.2513 17.051 32.8569 17.5269 32.2661L14.7265 30.01ZM15.1376 29.7835C15.3112 29.7611 15.4803 29.8093 15.6088 29.9057L13.451 32.7826C14.0631 33.2417 14.8312 33.449 15.5979 33.3501L15.1376 29.7835ZM15.6088 29.9057C15.7354 30.0006 15.8094 30.131 15.8337 30.2615L12.2981 30.9192C12.4351 31.6556 12.8409 32.3249 13.451 32.7826L15.6088 29.9057ZM15.8337 30.2615C15.8579 30.3915 15.8347 30.5295 15.7605 30.6508L12.6924 28.7748C12.2993 29.4178 12.1613 30.1833 12.2981 30.9192L15.8337 30.2615ZM15.7605 30.6508C15.6854 30.7737 15.5579 30.8773 15.3922 30.9219L14.4575 27.4493C13.7134 27.6496 13.0866 28.1302 12.6924 28.7748L15.7605 30.6508ZM15.3938 30.9215C15.3363 30.937 15.2763 30.9448 15.2158 30.9444L15.2428 27.3483C14.9768 27.3463 14.7121 27.3805 14.4559 27.4498L15.3938 30.9215ZM15.2426 25.6648C14.4185 25.6587 13.611 25.8783 12.9028 26.2966L14.7318 29.393C14.883 29.3036 15.0498 29.2597 15.2159 29.2609L15.2426 25.6648ZM12.9028 26.2966C12.1951 26.7146 11.6144 27.3145 11.2141 28.0293L14.3518 29.7864C14.447 29.6163 14.5801 29.4825 14.7318 29.393L12.9028 26.2966ZM11.2146 28.0284C10.8146 28.7418 10.606 29.5472 10.606 30.364L14.2022 30.3641C14.2022 30.1582 14.255 29.959 14.3513 29.7873L11.2146 28.0284ZM10.606 30.364C10.6059 31.1808 10.8145 31.9862 11.2145 32.6996L14.3512 30.9408C14.2549 30.7691 14.2022 30.5699 14.2022 30.3641L10.606 30.364ZM11.2145 32.6996C11.6147 33.4133 12.1942 34.0126 12.9002 34.4312L14.7345 31.338C14.5815 31.2473 14.4473 31.1122 14.3512 30.9408L11.2145 32.6996ZM12.9002 34.4312C13.6067 34.8502 14.4123 35.0718 15.2353 35.069L15.2232 31.4729C15.0555 31.4734 14.8871 31.4285 14.7345 31.338L12.9002 34.4312ZM15.2293 35.069C16.4711 35.069 17.6499 34.5593 18.51 33.6715L15.9271 31.1692C15.7319 31.3707 15.4797 31.4728 15.2293 31.4728V35.069ZM18.51 33.6715C19.3682 32.7856 19.8406 31.5959 19.8406 30.3669H16.2444C16.2444 30.6783 16.1241 30.9659 15.9271 31.1692L18.51 33.6715ZM19.8406 30.3669C19.8406 29.1379 19.3682 27.9482 18.51 27.0623L15.9271 29.5645C16.1241 29.7679 16.2444 30.0555 16.2444 30.3669H19.8406ZM18.51 27.0623C17.6499 26.1745 16.4711 25.6647 15.2293 25.6647V29.2609C15.4797 29.2609 15.7319 29.3631 15.9271 29.5645L18.51 27.0623Z" fill="#153C59"/>
</g>
<path d="M24.251 29.1463C24.5498 29.1482 24.8368 29.2675 25.0536 29.4798C25.2704 29.6921 25.4008 29.9816 25.4184 30.2895C25.436 30.5975 25.3395 30.9008 25.1484 31.138C24.9574 31.3752 24.686 31.5285 24.3895 31.5667C24.093 31.605 23.7934 31.5254 23.5517 31.3441C23.3099 31.1627 23.144 30.8933 23.0877 30.5903C23.0313 30.2874 23.0887 29.9736 23.2482 29.7127C23.4077 29.4519 23.6574 29.2634 23.9466 29.1856C24.0459 29.1587 24.1483 29.1455 24.251 29.1463ZM24.251 27.4628C23.7559 27.4591 23.2687 27.5909 22.839 27.8447C22.4093 28.0985 22.0524 28.4653 21.8047 28.9078C21.5565 29.3503 21.4258 29.8526 21.4258 30.364C21.4258 30.8753 21.5565 31.3776 21.8046 31.8201C22.0527 32.2627 22.4096 32.6299 22.8391 32.8846C23.2686 33.1393 23.7556 33.2725 24.251 33.2709C24.9971 33.2709 25.7127 32.9649 26.2403 32.4203C26.7679 31.8757 27.0643 31.137 27.0643 30.3668C27.0643 29.5966 26.7679 28.858 26.2403 28.3134C25.7127 27.7688 24.9971 27.4628 24.251 27.4628Z" fill="#153C59"/>
<mask id="mask4_533_6720" style="mask-type:luminance" maskUnits="userSpaceOnUse" x="21" y="27" width="7" height="7">
<path d="M24.251 29.1463C24.5498 29.1482 24.8368 29.2675 25.0536 29.4798C25.2704 29.6921 25.4008 29.9816 25.4184 30.2895C25.436 30.5975 25.3395 30.9008 25.1484 31.138C24.9574 31.3752 24.686 31.5285 24.3895 31.5667C24.093 31.605 23.7934 31.5254 23.5517 31.3441C23.3099 31.1627 23.144 30.8933 23.0877 30.5903C23.0313 30.2874 23.0887 29.9736 23.2482 29.7127C23.4077 29.4519 23.6574 29.2634 23.9466 29.1856C24.0459 29.1587 24.1483 29.1455 24.251 29.1463ZM24.251 27.4628C23.7559 27.4591 23.2687 27.5909 22.839 27.8447C22.4093 28.0985 22.0524 28.4653 21.8047 28.9078C21.5565 29.3503 21.4258 29.8526 21.4258 30.364C21.4258 30.8753 21.5565 31.3776 21.8046 31.8201C22.0527 32.2627 22.4096 32.6299 22.8391 32.8846C23.2686 33.1393 23.7556 33.2725 24.251 33.2709C24.9971 33.2709 25.7127 32.9649 26.2403 32.4203C26.7679 31.8757 27.0643 31.137 27.0643 30.3668C27.0643 29.5966 26.7679 28.858 26.2403 28.3134C25.7127 27.7688 24.9971 27.4628 24.251 27.4628Z" fill="#153C59"/>
</mask>
<g mask="url(#mask4_533_6720)">
<path d="M24.2507 29.1463L24.2372 30.9443H24.2389L24.2507 29.1463ZM23.9463 29.1856L24.4136 30.9219L24.4152 30.9214L23.9463 29.1856ZM24.2507 27.4628L24.2374 29.2609H24.2507V27.4628ZM21.8044 28.9078L23.3727 29.7873L23.3732 29.7863L21.8044 28.9078ZM24.2507 33.2709V31.4728H24.2446L24.2507 33.2709ZM24.2389 30.9443C24.0635 30.9432 23.9058 30.8728 23.7952 30.7645L26.3113 28.1951C25.7671 27.6621 25.0355 27.3533 24.2625 27.3482L24.2389 30.9443ZM23.7952 30.7645C23.6862 30.6577 23.6305 30.5232 23.623 30.3923L27.2133 30.1868C27.1705 29.44 26.854 28.7265 26.3113 28.1951L23.7952 30.7645ZM23.623 30.3923C23.6155 30.2614 23.6555 30.1247 23.7479 30.01L26.5484 32.2661C27.023 31.6769 27.256 30.9336 27.2133 30.1868L23.623 30.3923ZM23.7479 30.01C23.8417 29.8935 23.9862 29.8057 24.1591 29.7834L24.6193 33.35C25.3853 33.2512 26.0724 32.8569 26.5484 32.2661L23.7479 30.01ZM24.1591 29.7834C24.3326 29.761 24.5017 29.8092 24.6303 29.9056L22.4724 32.7825C23.0845 33.2416 23.8527 33.449 24.6193 33.35L24.1591 29.7834ZM24.6303 29.9056C24.7569 30.0006 24.8308 30.1309 24.8551 30.2615L21.3196 30.9191C21.4566 31.6556 21.8623 32.3249 22.4724 32.7825L24.6303 29.9056ZM24.8551 30.2615C24.8793 30.3914 24.8561 30.5294 24.782 30.6507L21.7139 28.7748C21.3207 29.4178 21.1827 30.1833 21.3196 30.9191L24.8551 30.2615ZM24.782 30.6507C24.7068 30.7736 24.5793 30.8773 24.4136 30.9219L23.4789 27.4493C22.7348 27.6495 22.108 28.1301 21.7139 28.7748L24.782 30.6507ZM24.4152 30.9214C24.3577 30.937 24.2978 30.9448 24.2372 30.9443L24.2642 27.3482C23.9982 27.3462 23.7335 27.3805 23.4773 27.4497L24.4152 30.9214ZM24.264 25.6647C23.44 25.6586 22.6325 25.8782 21.9243 26.2965L23.7532 29.3929C23.9044 29.3036 24.0713 29.2597 24.2374 29.2609L24.264 25.6647ZM21.9243 26.2965C21.2165 26.7146 20.6358 27.3144 20.2355 28.0292L23.3732 29.7863C23.4685 29.6163 23.6015 29.4825 23.7532 29.3929L21.9243 26.2965ZM20.236 28.0283C19.836 28.7417 19.6274 29.5471 19.6274 30.3639L23.2236 30.364C23.2236 30.1581 23.2764 29.959 23.3727 29.7873L20.236 28.0283ZM19.6274 30.3639C19.6274 31.1807 19.8359 31.9862 20.2359 32.6995L23.3727 30.9408C23.2764 30.769 23.2236 30.5699 23.2236 30.364L19.6274 30.3639ZM20.2359 32.6995C20.6361 33.4133 21.2156 34.0125 21.9217 34.4312L23.7559 31.338C23.6029 31.2472 23.4688 31.1121 23.3727 30.9408L20.2359 32.6995ZM21.9217 34.4312C22.6281 34.8501 23.4338 35.0717 24.2568 35.069L24.2446 31.4728C24.0769 31.4734 23.9085 31.4285 23.7559 31.338L21.9217 34.4312ZM24.2507 35.069C25.4925 35.069 26.6714 34.5592 27.5314 33.6714L24.9485 31.1692C24.7534 31.3706 24.5012 31.4728 24.2507 31.4728V35.069ZM27.5314 33.6714C28.3896 32.7855 28.8621 31.5958 28.8621 30.3668H25.2659C25.2659 30.6782 25.1455 30.9658 24.9485 31.1692L27.5314 33.6714ZM28.8621 30.3668C28.8621 29.1378 28.3896 27.9481 27.5314 27.0623L24.9485 29.5645C25.1455 29.7678 25.2659 30.0554 25.2659 30.3668H28.8621ZM27.5314 27.0623C26.6714 26.1745 25.4925 25.6647 24.2507 25.6647V29.2609C24.5012 29.2609 24.7534 29.3631 24.9485 29.5645L27.5314 27.0623Z" fill="#153C59"/>
</g>
<path d="M37.2139 8.52411V15.2908" stroke="#153C59" stroke-width="2.25539" stroke-miterlimit="10" stroke-linecap="round"/>
<path d="M23.6113 22.6202V28.957" stroke="#153C59" stroke-width="2.25539"/>
<path d="M15.4136 22.718V28.1299" stroke="#153C59" stroke-width="2.25539"/>
<path d="M9.03542 8.80824C9.00406 8.89343 9.03544 11.2195 9.03544 11.2195C9.03756 13.889 9.04708 16.419 9.02698 18.9473C9.01429 19.743 9.30198 20.1168 9.75466 20.42C16.3876 24.8574 23.0241 24.8574 29.6641 20.42C30.2141 20.0526 30.4057 19.7357 30.394 18.8903C30.3612 16.5545 30.3927 10.2945 30.4476 7.96033" stroke="#153C59" stroke-width="2.25539" stroke-miterlimit="10"/>
<path d="M37.3923 6.9252C32.1119 5.09094 26.8319 3.25441 21.5524 1.41558C20.7797 1.12691 19.9379 1.12015 19.1612 1.39638C13.8523 3.25075 8.53992 5.09185 3.22408 6.91971C2.86488 7.0431 2.53421 7.22132 2.4188 7.45848C2.40489 7.48793 2.3936 7.51868 2.38508 7.55034C2.29898 7.69168 2.2539 7.85656 2.25541 8.02467C2.25541 8.72108 2.75984 8.82938 3.20722 8.98429C8.51874 10.8332 13.8302 12.6825 19.1417 14.5323C19.9203 14.8036 20.7625 14.7901 21.5329 14.4939C24.6011 13.4109 27.6757 12.3471 30.7477 11.2792C32.8887 10.5732 35.027 9.8603 37.2094 9.10356C37.6568 8.94728 38.3493 8.58399 38.3415 7.88758C38.3337 7.19116 37.8436 7.08286 37.3923 6.9252Z" fill="#153C59"/>
<path d="M37.7837 16.4098C38.0825 16.4118 38.3694 16.531 38.5862 16.7433C38.803 16.9556 38.9335 17.2451 38.9511 17.5531C38.9687 17.861 38.8722 18.1644 38.6811 18.4016C38.49 18.6387 38.2187 18.792 37.9221 18.8303C37.6256 18.8685 37.3261 18.7889 37.0843 18.6076C36.8425 18.4263 36.6767 18.1568 36.6203 17.8539C36.564 17.5509 36.6214 17.2371 36.7809 16.9763C36.9404 16.7154 37.19 16.527 37.4792 16.4491C37.5786 16.4223 37.6809 16.4091 37.7837 16.4098ZM37.7837 14.7263C37.2886 14.7227 36.8014 14.8544 36.3717 15.1083C35.942 15.3621 35.5851 15.7289 35.3373 16.1713C35.0892 16.6139 34.9585 17.1162 34.9585 17.6275C34.9584 18.1389 35.0891 18.6411 35.3372 19.0837C35.5854 19.5263 35.9422 19.8934 36.3718 20.1481C36.8013 20.4028 37.2883 20.5361 37.7837 20.5344C38.5298 20.5344 39.2453 20.2285 39.7729 19.6838C40.3005 19.1392 40.5969 18.4006 40.5969 17.6304C40.5969 16.8602 40.3005 16.1215 39.7729 15.5769C39.2453 15.0323 38.5298 14.7263 37.7837 14.7263Z" fill="#153C59"/>
<mask id="mask5_533_6720" style="mask-type:luminance" maskUnits="userSpaceOnUse" x="34" y="14" width="7" height="7">
<path d="M37.7837 16.4098C38.0825 16.4118 38.3694 16.531 38.5862 16.7433C38.803 16.9556 38.9335 17.2451 38.9511 17.5531C38.9687 17.861 38.8722 18.1644 38.6811 18.4016C38.49 18.6387 38.2187 18.792 37.9221 18.8303C37.6256 18.8685 37.3261 18.7889 37.0843 18.6076C36.8425 18.4263 36.6767 18.1568 36.6203 17.8539C36.564 17.5509 36.6214 17.2371 36.7809 16.9763C36.9404 16.7154 37.19 16.527 37.4792 16.4491C37.5786 16.4223 37.6809 16.4091 37.7837 16.4098ZM37.7837 14.7263C37.2886 14.7227 36.8014 14.8544 36.3717 15.1083C35.942 15.3621 35.5851 15.7289 35.3373 16.1713C35.0892 16.6139 34.9585 17.1162 34.9585 17.6275C34.9584 18.1389 35.0891 18.6411 35.3372 19.0837C35.5854 19.5263 35.9422 19.8934 36.3718 20.1481C36.8013 20.4028 37.2883 20.5361 37.7837 20.5344C38.5298 20.5344 39.2453 20.2285 39.7729 19.6838C40.3005 19.1392 40.5969 18.4006 40.5969 17.6304C40.5969 16.8602 40.3005 16.1215 39.7729 15.5769C39.2453 15.0323 38.5298 14.7263 37.7837 14.7263Z" fill="#153C59"/>
</mask>
<g mask="url(#mask5_533_6720)">
<path d="M37.7835 16.4098L37.77 18.2079H37.7717L37.7835 16.4098ZM37.479 16.4491L37.9464 18.1854L37.948 18.185L37.479 16.4491ZM37.7835 14.7263L37.7701 16.5244H37.7835V14.7263ZM35.3371 16.1713L36.9055 17.0508L36.906 17.0499L35.3371 16.1713ZM37.7835 20.5344V18.7363H37.7774L37.7835 20.5344ZM37.7717 18.2079C37.5963 18.2067 37.4386 18.1364 37.3279 18.028L39.8441 15.4587C39.2999 14.9257 38.5683 14.6168 37.7952 14.6118L37.7717 18.2079ZM37.3279 18.028C37.2189 17.9213 37.1632 17.7868 37.1557 17.6558L40.746 17.4504C40.7033 16.7035 40.3867 15.99 39.8441 15.4587L37.3279 18.028ZM37.1557 17.6558C37.1482 17.5249 37.1882 17.3883 37.2807 17.2735L40.0811 19.5296C40.5557 18.9405 40.7888 18.1971 40.746 17.4504L37.1557 17.6558ZM37.2807 17.2735C37.3745 17.1571 37.5189 17.0693 37.6918 17.047L38.1521 20.6136C38.918 20.5148 39.6052 20.1204 40.0811 19.5296L37.2807 17.2735ZM37.6918 17.047C37.8654 17.0246 38.0345 17.0728 38.163 17.1692L36.0052 20.0461C36.6173 20.5051 37.3854 20.7125 38.1521 20.6136L37.6918 17.047ZM38.163 17.1692C38.2896 17.2641 38.3636 17.3945 38.3879 17.525L34.8523 18.1827C34.9893 18.9191 35.3951 19.5884 36.0052 20.0461L38.163 17.1692ZM38.3879 17.525C38.4121 17.655 38.3889 17.793 38.3147 17.9142L35.2466 16.0383C34.8535 16.6813 34.7154 17.4468 34.8523 18.1827L38.3879 17.525ZM38.3147 17.9142C38.2396 18.0371 38.1121 18.1408 37.9464 18.1854L37.0117 14.7128C36.2676 14.9131 35.6407 15.3937 35.2466 16.0383L38.3147 17.9142ZM37.948 18.185C37.8905 18.2005 37.8305 18.2083 37.77 18.2079L37.7969 14.6118C37.5309 14.6098 37.2663 14.644 37.01 14.7133L37.948 18.185ZM37.7968 12.9283C36.9727 12.9222 36.1652 13.1418 35.457 13.5601L37.286 16.6564C37.4372 16.5671 37.604 16.5231 37.7701 16.5244L37.7968 12.9283ZM35.457 13.5601C34.7493 13.9781 34.1686 14.578 33.7683 15.2928L36.906 17.0499C37.0012 16.8798 37.1343 16.746 37.286 16.6564L35.457 13.5601ZM33.7688 15.2919C33.3687 16.0052 33.1602 16.8107 33.1602 17.6275L36.7564 17.6276C36.7564 17.4217 36.8092 17.2225 36.9055 17.0508L33.7688 15.2919ZM33.1602 17.6275C33.1601 18.4443 33.3687 19.2497 33.7687 19.9631L36.9054 18.2043C36.8091 18.0326 36.7563 17.8334 36.7564 17.6276L33.1602 17.6275ZM33.7687 19.9631C34.1688 20.6768 34.7484 21.2761 35.4544 21.6947L37.2887 18.6015C37.1357 18.5108 37.0015 18.3757 36.9054 18.2043L33.7687 19.9631ZM35.4544 21.6947C36.1609 22.1136 36.9665 22.3353 37.7895 22.3325L37.7774 18.7363C37.6097 18.7369 37.4413 18.692 37.2887 18.6015L35.4544 21.6947ZM37.7835 22.3325C39.0253 22.3325 40.2041 21.8228 41.0642 20.935L38.4813 18.4327C38.2861 18.6342 38.0339 18.7363 37.7835 18.7363V22.3325ZM41.0642 20.935C41.9224 20.0491 42.3948 18.8594 42.3948 17.6304H38.7986C38.7986 17.9418 38.6783 18.2294 38.4813 18.4327L41.0642 20.935ZM42.3948 17.6304C42.3948 16.4013 41.9224 15.2117 41.0642 14.3258L38.4813 16.828C38.6783 17.0314 38.7986 17.319 38.7986 17.6304H42.3948ZM41.0642 14.3258C40.2041 13.438 39.0253 12.9282 37.7835 12.9282V16.5244C38.0339 16.5244 38.2861 16.6266 38.4813 16.828L41.0642 14.3258Z" fill="#153C59"/>
</g>
</g>
</svg>
